<svg xmlns="http://www.w3.org/2000/svg" xmlns:xlink="http://www.w3.org/1999/xlink" width="500" zoomAndPan="magnify" viewBox="0 0 375 374.999991" height="500" preserveAspectRatio="xMidYMid meet" version="1.0"><defs><g/><clipPath id="e061ea19b1"><path d="M 140 88 L 253 88 L 253 178 L 140 178 Z M 140 88 " clip-rule="nonzero"/></clipPath><clipPath id="18bf58a4b0"><path d="M 242.378906 77.96875 L 260.417969 164.609375 L 149.546875 187.695312 L 131.507812 101.050781 Z M 242.378906 77.96875 " clip-rule="nonzero"/></clipPath><clipPath id="057221a5a1"><path d="M 242.378906 77.96875 L 260.417969 164.609375 L 149.546875 187.695312 L 131.507812 101.050781 Z M 242.378906 77.96875 " clip-rule="nonzero"/></clipPath><clipPath id="f8d9394c08"><path d="M 167 106 L 228 106 L 228 194 L 167 194 Z M 167 106 " clip-rule="nonzero"/></clipPath><clipPath id="131b4569f4"><path d="M 191.054688 104.488281 L 229.5 117.222656 L 203.085938 196.964844 L 164.640625 184.226562 Z M 191.054688 104.488281 " clip-rule="nonzero"/></clipPath><clipPath id="d552bc4a43"><path d="M 191.054688 104.488281 L 229.5 117.222656 L 203.085938 196.964844 L 164.640625 184.226562 Z M 191.054688 104.488281 " clip-rule="nonzero"/></clipPath></defs><g clip-path="url(#e061ea19b1)"><g clip-path="url(#18bf58a4b0)"><g clip-path="url(#057221a5a1)"><path fill="#25242a" d="M 251.027344 120.277344 C 249.757812 115.535156 247.378906 111.171875 244.949219 106.886719 C 240.835938 99.570312 235.75 91.960938 227.847656 89.308594 C 221.917969 87.371094 215.449219 88.578125 209.441406 90.324219 C 203.433594 92.066406 197.457031 94.296875 191.234375 94.324219 C 186.339844 94.355469 181.652344 93.007812 176.78125 92.824219 C 172.195312 92.652344 167.621094 93.535156 163.183594 94.738281 C 159.398438 95.738281 155.554688 97.101562 152.511719 99.636719 C 149.722656 102.050781 147.75 105.351562 146.210938 108.699219 C 142.886719 115.945312 141.023438 123.800781 140.519531 131.796875 C 140.167969 137.507812 140.488281 143.429688 142.449219 148.800781 C 145.054688 155.9375 150.269531 161.828125 156.109375 166.671875 C 160.496094 170.265625 165.285156 173.425781 170.707031 175.257812 C 175.601562 176.914062 180.742188 177.394531 185.929688 177.441406 C 197.222656 177.554688 208.738281 175.371094 218.707031 170.125 C 225.769531 166.398438 231.921875 161.3125 238.070312 156.230469 C 243.621094 151.621094 249.117188 145.402344 250.210938 141.582031 C 252.691406 133.316406 253.5 132.160156 251.027344 120.277344 Z M 251.027344 120.277344 " fill-opacity="1" fill-rule="nonzero"/></g></g></g><g clip-path="url(#f8d9394c08)"><g clip-path="url(#131b4569f4)"><g clip-path="url(#d552bc4a43)"><path fill="#f5efd7" d="M 194.289062 121.34375 C 195.15625 119.445312 196.136719 117.601562 197.085938 115.746094 C 197.535156 114.871094 197.984375 113.996094 198.398438 113.105469 C 198.914062 111.996094 199.480469 110.832031 199.699219 109.617188 C 199.789062 109.125 200.125 108.695312 200.675781 108.730469 C 201.132812 108.757812 201.644531 109.207031 201.554688 109.707031 C 201.140625 112.027344 199.957031 114.179688 198.898438 116.261719 C 197.945312 118.144531 196.933594 120.003906 196.054688 121.925781 C 195.84375 122.382812 195.398438 122.699219 194.878906 122.523438 C 194.4375 122.371094 194.078125 121.804688 194.289062 121.34375 Z M 201.789062 124.546875 C 204.027344 120.867188 205.882812 116.957031 207.308594 112.886719 C 207.707031 111.75 205.945312 111.167969 205.546875 112.304688 C 204.171875 116.222656 202.402344 119.96875 200.246094 123.515625 C 199.621094 124.542969 201.164062 125.578125 201.789062 124.546875 Z M 212.15625 114.496094 C 210.148438 118.117188 208.246094 121.839844 206.027344 125.335938 C 204.3125 128.035156 202.230469 130.894531 199.195312 132.15625 C 198.140625 132.59375 196.992188 132.820312 195.851562 132.773438 C 194.242188 132.703125 193.042969 131.558594 192.089844 130.339844 C 189.964844 127.636719 190.394531 123.589844 190.953125 120.40625 C 191.738281 115.964844 193.527344 111.71875 195.671875 107.777344 C 196.238281 106.726562 194.703125 105.683594 194.128906 106.742188 C 191.992188 110.664062 190.203125 114.828125 189.308594 119.21875 C 188.59375 122.722656 187.992188 127.261719 189.9375 130.488281 C 190.617188 131.617188 191.558594 132.75 192.675781 133.554688 C 190.207031 139.117188 187.8125 144.722656 185.121094 150.183594 C 183.253906 149.386719 181.234375 149.355469 179.605469 150.785156 C 178.867188 151.429688 178.46875 152.257812 178.074219 153.121094 C 175.628906 158.484375 173.1875 163.847656 170.742188 169.207031 C 169.726562 171.429688 168.71875 173.652344 167.703125 175.875 C 167.308594 176.742188 166.976562 177.601562 167.007812 178.589844 C 167.050781 179.769531 167.507812 180.9375 168.324219 181.792969 C 168.933594 182.425781 169.683594 182.792969 170.46875 183.152344 C 171.046875 183.421875 171.625 183.679688 172.207031 183.949219 C 174.496094 184.921875 177.25 183.96875 178.402344 181.722656 C 178.636719 181.257812 178.84375 180.777344 179.058594 180.300781 C 180.164062 177.875 181.269531 175.445312 182.378906 173.023438 C 184.710938 167.90625 187.054688 162.796875 189.371094 157.675781 C 189.953125 156.398438 190.070312 155.015625 189.558594 153.6875 C 189.023438 152.304688 187.976562 151.558594 186.792969 150.957031 C 189.464844 145.515625 191.859375 139.945312 194.316406 134.410156 C 195.5625 134.800781 197.003906 134.675781 198.246094 134.410156 C 201.507812 133.71875 203.933594 131.34375 205.902344 128.777344 C 207.394531 126.828125 208.609375 124.691406 209.800781 122.550781 C 211.101562 120.210938 212.398438 117.867188 213.699219 115.527344 C 214.28125 114.484375 212.738281 113.445312 212.15625 114.496094 Z M 226.730469 125.011719 C 225.792969 127.308594 224.660156 129.535156 223.605469 131.785156 C 221.691406 135.871094 219.773438 139.953125 217.863281 144.035156 C 216.289062 147.390625 214.597656 150.710938 213.144531 154.117188 C 211.90625 157.035156 210.703125 159.96875 209.480469 162.898438 C 209.582031 163.042969 209.675781 163.1875 209.757812 163.351562 C 210.34375 164.558594 210.222656 165.859375 209.683594 167.046875 C 207.351562 172.164062 205.015625 177.289062 202.683594 182.410156 C 201.542969 184.914062 200.402344 187.414062 199.261719 189.917969 C 199.039062 190.40625 198.828125 190.894531 198.597656 191.375 C 197.652344 193.386719 195.40625 194.40625 193.316406 193.535156 C 192.746094 193.277344 192.179688 193.015625 191.609375 192.753906 C 190.960938 192.457031 190.238281 192.195312 189.675781 191.742188 C 188.742188 190.988281 188.1875 189.859375 188.164062 188.652344 C 188.148438 187.78125 188.464844 187.058594 188.816406 186.296875 C 189.832031 184.070312 190.84375 181.847656 191.855469 179.617188 C 194.351562 174.148438 196.839844 168.679688 199.332031 163.210938 C 199.585938 162.660156 199.816406 162.03125 200.167969 161.546875 C 200.878906 160.570312 201.976562 159.953125 203.171875 159.867188 C 203.378906 159.855469 203.574219 159.863281 203.769531 159.882812 C 204.332031 158.5625 204.890625 157.246094 205.453125 155.925781 C 204.597656 155.554688 203.738281 155.183594 202.882812 154.816406 C 202.441406 154.628906 202.105469 154.140625 202.296875 153.636719 C 203.664062 150.085938 205.039062 146.535156 206.558594 143.039062 C 209.21875 136.917969 212.335938 130.921875 216.539062 125.707031 C 218.351562 123.460938 220.339844 121.101562 222.949219 119.765625 C 223.996094 119.226562 225.789062 118.457031 226.96875 118.894531 C 227.664062 119.152344 227.839844 119.746094 227.703125 120.257812 C 227.71875 120.289062 227.738281 120.320312 227.753906 120.351562 C 227.957031 120.792969 227.816406 121.253906 227.734375 121.714844 C 227.523438 122.847656 227.167969 123.945312 226.730469 125.011719 Z M 225.800781 121.945312 C 225.875 121.648438 225.910156 121.339844 225.976562 121.042969 C 225.972656 121.074219 226.152344 121.320312 226.019531 121.066406 C 225.945312 120.929688 225.859375 120.804688 225.773438 120.675781 C 225.277344 120.777344 224.613281 121.054688 224.398438 121.144531 C 223.835938 121.378906 223.292969 121.671875 222.792969 122.015625 C 221.722656 122.742188 220.785156 123.664062 219.914062 124.613281 C 212.433594 132.734375 208.285156 143.253906 204.363281 153.425781 C 205.230469 153.800781 206.097656 154.175781 206.960938 154.550781 C 207.390625 154.734375 207.757812 155.234375 207.546875 155.726562 C 206.878906 157.296875 206.214844 158.859375 205.546875 160.425781 C 205.558594 160.429688 205.566406 160.433594 205.578125 160.441406 C 206.378906 160.808594 207.253906 161.136719 208.023438 161.59375 C 208.535156 160.367188 209.046875 159.140625 209.558594 157.917969 C 211.679688 152.835938 214.027344 147.878906 216.363281 142.894531 C 218.257812 138.855469 220.152344 134.816406 222.042969 130.78125 C 222.949219 128.851562 223.898438 126.933594 224.746094 124.976562 C 225.167969 123.988281 225.546875 122.984375 225.800781 121.945312 Z M 225.800781 121.945312 " fill-opacity="1" fill-rule="nonzero"/></g></g></g><g fill="#25242a" fill-opacity="1"><g transform="translate(74.024363, 230.739902)"><g><path d="M 48.757812 -11.203125 C 48.496094 -15.515625 48.023438 -19.933594 47.601562 -24.195312 L 47.285156 -27.402344 C 46.707031 -32.714844 45.707031 -36.871094 44.078125 -40.550781 C 43.128906 -42.5 41.710938 -43.8125 40.027344 -44.128906 C 38.34375 -44.496094 36.554688 -43.867188 34.925781 -42.394531 C 34.03125 -41.550781 33.242188 -40.550781 32.609375 -39.605469 C 31.402344 -37.554688 30.347656 -35.554688 29.507812 -33.609375 C 28.71875 -31.925781 28.035156 -30.136719 27.296875 -28.296875 C 26.984375 -27.457031 26.667969 -26.613281 26.296875 -25.773438 L 25.878906 -24.617188 L 25.300781 -25.71875 C 24.773438 -26.613281 24.351562 -27.457031 23.878906 -28.351562 C 22.878906 -30.296875 21.933594 -32.136719 20.828125 -33.871094 C 18.933594 -36.714844 17.410156 -38.660156 15.726562 -40.183594 C 14.726562 -41.078125 13.570312 -41.550781 12.464844 -41.550781 C 12.253906 -41.550781 11.992188 -41.5 11.78125 -41.5 C 10.414062 -41.238281 9.152344 -40.289062 8.363281 -38.816406 C 7.417969 -37.082031 6.734375 -35.1875 6.363281 -33.398438 C 4.839844 -25.351562 3.417969 -17.410156 2.15625 -9.679688 C 1.839844 -7.941406 1.839844 -5.945312 2.15625 -3.785156 C 2.417969 -1.628906 4.101562 -0.0507812 6.207031 0 C 8.257812 0.105469 9.941406 -1.261719 10.570312 -3.417969 C 10.886719 -4.574219 10.992188 -5.839844 11.152344 -7.046875 C 11.519531 -10.78125 11.886719 -14.464844 12.308594 -18.144531 C 12.570312 -20.828125 12.832031 -23.457031 13.097656 -26.089844 C 13.148438 -26.824219 13.308594 -27.5625 13.414062 -28.246094 L 13.675781 -30.296875 L 14.464844 -29.613281 C 15.148438 -29.035156 15.464844 -28.457031 15.675781 -27.929688 C 16.148438 -26.878906 16.621094 -25.773438 17.09375 -24.667969 C 17.988281 -22.5625 18.882812 -20.355469 19.882812 -18.199219 C 20.777344 -16.304688 21.671875 -14.304688 22.878906 -12.625 C 23.933594 -11.152344 25.40625 -10.363281 26.984375 -10.414062 C 28.558594 -10.519531 30.03125 -11.464844 30.980469 -13.097656 C 31.714844 -14.304688 32.191406 -15.726562 32.714844 -17.09375 L 32.769531 -17.253906 C 33.609375 -19.617188 34.453125 -21.984375 35.292969 -24.40625 C 35.765625 -25.773438 36.238281 -27.140625 36.714844 -28.507812 C 36.871094 -28.875 37.027344 -29.246094 37.1875 -29.558594 L 37.871094 -31.136719 L 38.394531 -29.980469 C 38.765625 -29.246094 38.816406 -28.558594 38.816406 -27.929688 C 38.816406 -26.773438 38.816406 -25.613281 38.816406 -24.511719 C 38.765625 -22.089844 38.710938 -19.617188 38.871094 -17.199219 C 39.183594 -12.570312 39.660156 -8.785156 40.34375 -5.257812 C 40.816406 -3 42.710938 -2 44.339844 -2.050781 C 46.234375 -2.105469 47.757812 -3.417969 48.230469 -5.46875 C 48.707031 -7.417969 48.914062 -9.414062 48.757812 -11.203125 Z M 48.757812 -11.203125 "/></g></g></g><g fill="#25242a" fill-opacity="1"><g transform="translate(124.88259, 230.739902)"><g><path d="M 9.730469 -22.460938 C 9.679688 -23.933594 8.890625 -25.089844 7.3125 -25.300781 C 5.679688 -25.511719 4.472656 -24.5625 4.207031 -23.089844 C 3.3125 -17.988281 2.417969 -12.78125 1.945312 -7.625 C 1.683594 -4.890625 3.367188 -3.15625 5.257812 -3 C 7.207031 -2.839844 8.785156 -4.472656 9.308594 -7.257812 C 9.46875 -8.308594 9.574219 -9.414062 9.625 -10.46875 C 9.679688 -12.042969 9.835938 -20.039062 9.730469 -22.460938 Z M 5.839844 -29.824219 C 7.574219 -29.769531 9.152344 -31.347656 9.203125 -33.292969 C 9.203125 -35.082031 7.835938 -36.503906 6.046875 -36.449219 C 4.261719 -36.449219 2.789062 -35.03125 2.789062 -33.1875 C 2.789062 -31.347656 4.101562 -29.875 5.839844 -29.824219 Z M 5.839844 -29.824219 "/></g></g></g><g fill="#25242a" fill-opacity="1"><g transform="translate(136.663607, 230.739902)"><g><path d="M 27.035156 -10.519531 C 26.246094 -14.148438 25.667969 -17.882812 24.878906 -21.566406 C 24.617188 -22.722656 24.300781 -24.246094 23.457031 -24.929688 C 20.933594 -26.878906 18.144531 -28.558594 14.621094 -27.980469 C 8.46875 -26.878906 2.472656 -20.144531 1.945312 -13.570312 C 1.472656 -7.519531 6.3125 -3.3125 12.308594 -4.734375 C 13.886719 -5.15625 15.359375 -6.046875 16.832031 -6.785156 C 17.355469 -7.046875 17.777344 -7.46875 18.304688 -7.835938 C 18.566406 -7.46875 18.777344 -7.257812 18.933594 -6.996094 C 20.671875 -4.367188 22.933594 -3.367188 25.035156 -4.261719 C 27.085938 -5.15625 27.71875 -7.363281 27.035156 -10.519531 Z M 11.78125 -12.359375 C 11.203125 -12.148438 10.363281 -12.097656 9.835938 -12.359375 C 9.519531 -12.519531 9.519531 -13.621094 9.730469 -14.148438 C 10.886719 -17.410156 12.730469 -20.039062 16.253906 -21.511719 C 16.882812 -17.460938 14.992188 -13.621094 11.78125 -12.359375 Z M 11.78125 -12.359375 "/></g></g></g><g fill="#25242a" fill-opacity="1"><g transform="translate(165.958362, 230.739902)"><g><path d="M 48.757812 -11.203125 C 48.496094 -15.515625 48.023438 -19.933594 47.601562 -24.195312 L 47.285156 -27.402344 C 46.707031 -32.714844 45.707031 -36.871094 44.078125 -40.550781 C 43.128906 -42.5 41.710938 -43.8125 40.027344 -44.128906 C 38.34375 -44.496094 36.554688 -43.867188 34.925781 -42.394531 C 34.03125 -41.550781 33.242188 -40.550781 32.609375 -39.605469 C 31.402344 -37.554688 30.347656 -35.554688 29.507812 -33.609375 C 28.71875 -31.925781 28.035156 -30.136719 27.296875 -28.296875 C 26.984375 -27.457031 26.667969 -26.613281 26.296875 -25.773438 L 25.878906 -24.617188 L 25.300781 -25.71875 C 24.773438 -26.613281 24.351562 -27.457031 23.878906 -28.351562 C 22.878906 -30.296875 21.933594 -32.136719 20.828125 -33.871094 C 18.933594 -36.714844 17.410156 -38.660156 15.726562 -40.183594 C 14.726562 -41.078125 13.570312 -41.550781 12.464844 -41.550781 C 12.253906 -41.550781 11.992188 -41.5 11.78125 -41.5 C 10.414062 -41.238281 9.152344 -40.289062 8.363281 -38.816406 C 7.417969 -37.082031 6.734375 -35.1875 6.363281 -33.398438 C 4.839844 -25.351562 3.417969 -17.410156 2.15625 -9.679688 C 1.839844 -7.941406 1.839844 -5.945312 2.15625 -3.785156 C 2.417969 -1.628906 4.101562 -0.0507812 6.207031 0 C 8.257812 0.105469 9.941406 -1.261719 10.570312 -3.417969 C 10.886719 -4.574219 10.992188 -5.839844 11.152344 -7.046875 C 11.519531 -10.78125 11.886719 -14.464844 12.308594 -18.144531 C 12.570312 -20.828125 12.832031 -23.457031 13.097656 -26.089844 C 13.148438 -26.824219 13.308594 -27.5625 13.414062 -28.246094 L 13.675781 -30.296875 L 14.464844 -29.613281 C 15.148438 -29.035156 15.464844 -28.457031 15.675781 -27.929688 C 16.148438 -26.878906 16.621094 -25.773438 17.09375 -24.667969 C 17.988281 -22.5625 18.882812 -20.355469 19.882812 -18.199219 C 20.777344 -16.304688 21.671875 -14.304688 22.878906 -12.625 C 23.933594 -11.152344 25.40625 -10.363281 26.984375 -10.414062 C 28.558594 -10.519531 30.03125 -11.464844 30.980469 -13.097656 C 31.714844 -14.304688 32.191406 -15.726562 32.714844 -17.09375 L 32.769531 -17.253906 C 33.609375 -19.617188 34.453125 -21.984375 35.292969 -24.40625 C 35.765625 -25.773438 36.238281 -27.140625 36.714844 -28.507812 C 36.871094 -28.875 37.027344 -29.246094 37.1875 -29.558594 L 37.871094 -31.136719 L 38.394531 -29.980469 C 38.765625 -29.246094 38.816406 -28.558594 38.816406 -27.929688 C 38.816406 -26.773438 38.816406 -25.613281 38.816406 -24.511719 C 38.765625 -22.089844 38.710938 -19.617188 38.871094 -17.199219 C 39.183594 -12.570312 39.660156 -8.785156 40.34375 -5.257812 C 40.816406 -3 42.710938 -2 44.339844 -2.050781 C 46.234375 -2.105469 47.757812 -3.417969 48.230469 -5.46875 C 48.707031 -7.417969 48.914062 -9.414062 48.757812 -11.203125 Z M 48.757812 -11.203125 "/></g></g></g><g fill="#25242a" fill-opacity="1"><g transform="translate(216.81659, 230.739902)"><g><path d="M 9.730469 -22.460938 C 9.679688 -23.933594 8.890625 -25.089844 7.3125 -25.300781 C 5.679688 -25.511719 4.472656 -24.5625 4.207031 -23.089844 C 3.3125 -17.988281 2.417969 -12.78125 1.945312 -7.625 C 1.683594 -4.890625 3.367188 -3.15625 5.257812 -3 C 7.207031 -2.839844 8.785156 -4.472656 9.308594 -7.257812 C 9.46875 -8.308594 9.574219 -9.414062 9.625 -10.46875 C 9.679688 -12.042969 9.835938 -20.039062 9.730469 -22.460938 Z M 5.839844 -29.824219 C 7.574219 -29.769531 9.152344 -31.347656 9.203125 -33.292969 C 9.203125 -35.082031 7.835938 -36.503906 6.046875 -36.449219 C 4.261719 -36.449219 2.789062 -35.03125 2.789062 -33.1875 C 2.789062 -31.347656 4.101562 -29.875 5.839844 -29.824219 Z M 5.839844 -29.824219 "/></g></g></g><g fill="#25242a" fill-opacity="1"><g transform="translate(228.597606, 230.739902)"><g><path d="M 27.035156 -10.519531 C 26.246094 -14.148438 25.667969 -17.882812 24.878906 -21.566406 C 24.617188 -22.722656 24.300781 -24.246094 23.457031 -24.929688 C 20.933594 -26.878906 18.144531 -28.558594 14.621094 -27.980469 C 8.46875 -26.878906 2.472656 -20.144531 1.945312 -13.570312 C 1.472656 -7.519531 6.3125 -3.3125 12.308594 -4.734375 C 13.886719 -5.15625 15.359375 -6.046875 16.832031 -6.785156 C 17.355469 -7.046875 17.777344 -7.46875 18.304688 -7.835938 C 18.566406 -7.46875 18.777344 -7.257812 18.933594 -6.996094 C 20.671875 -4.367188 22.933594 -3.367188 25.035156 -4.261719 C 27.085938 -5.15625 27.71875 -7.363281 27.035156 -10.519531 Z M 11.78125 -12.359375 C 11.203125 -12.148438 10.363281 -12.097656 9.835938 -12.359375 C 9.519531 -12.519531 9.519531 -13.621094 9.730469 -14.148438 C 10.886719 -17.410156 12.730469 -20.039062 16.253906 -21.511719 C 16.882812 -17.460938 14.992188 -13.621094 11.78125 -12.359375 Z M 11.78125 -12.359375 "/></g></g></g><g fill="#25242a" fill-opacity="1"><g transform="translate(257.892362, 230.739902)"><g><path d="M 40.921875 -11.675781 C 40.5 -15.410156 40.132812 -19.199219 37.921875 -22.460938 C 34.871094 -27.035156 29.824219 -27.613281 25.878906 -23.773438 C 25.351562 -23.300781 24.984375 -22.617188 24.511719 -21.984375 C 19.617188 -27.613281 18.25 -27.613281 10.835938 -22.355469 C 10.625 -23.25 10.625 -24.246094 10.203125 -24.929688 C 9.625 -25.824219 8.730469 -26.878906 7.835938 -26.984375 C 6.941406 -27.140625 5.734375 -26.402344 4.945312 -25.71875 C 4.367188 -25.246094 3.996094 -24.300781 3.890625 -23.511719 C 3.207031 -18.566406 2.523438 -13.570312 1.945312 -8.625 C 1.839844 -7.835938 2.105469 -6.941406 2.367188 -6.152344 C 3.050781 -4.15625 4.679688 -2.894531 6.574219 -2.789062 C 8.574219 -2.683594 10.257812 -3.785156 11.152344 -5.890625 C 11.464844 -6.679688 11.625 -7.519531 11.941406 -8.308594 C 12.886719 -10.992188 13.832031 -13.726562 14.992188 -16.304688 C 15.515625 -17.515625 16.621094 -18.460938 17.460938 -19.566406 C 17.726562 -19.460938 17.988281 -19.355469 18.25 -19.304688 C 18.355469 -17.253906 18.566406 -15.199219 18.566406 -13.148438 C 18.566406 -11.152344 18.304688 -9.203125 18.355469 -7.257812 C 18.410156 -4.523438 20.199219 -2.628906 22.5625 -2.578125 C 24.878906 -2.472656 26.71875 -4.15625 27.035156 -6.785156 C 27.191406 -7.785156 27.140625 -8.835938 27.246094 -9.835938 C 27.402344 -12.464844 28.664062 -14.621094 30.191406 -16.671875 C 30.402344 -16.621094 30.558594 -16.566406 30.71875 -16.566406 C 30.820312 -15.410156 30.820312 -14.203125 31.03125 -13.042969 C 31.558594 -10.570312 31.925781 -7.996094 32.875 -5.679688 C 33.609375 -3.785156 35.449219 -2.839844 37.605469 -3.207031 C 39.394531 -3.523438 40.761719 -5.101562 40.972656 -7.363281 C 41.132812 -8.785156 41.078125 -10.257812 40.921875 -11.675781 Z M 40.921875 -11.675781 "/></g></g></g><g fill="#25242a" fill-opacity="1"><g transform="translate(170.892832, 252.54921)"><g><path d="M 9.285156 -8.496094 C 8.121094 -8.609375 6.972656 -8.71875 5.8125 -8.828125 C 4.707031 -8.925781 4.148438 -8.523438 3.757812 -7.496094 C 2.84375 -5.113281 1.914062 -2.734375 0.902344 -0.394531 C 0.324219 0.929688 2.285156 2.082031 2.867188 0.742188 C 3.34375 -0.375 3.820312 -1.488281 4.265625 -2.613281 C 5.164062 -2.566406 6.023438 -2.441406 6.894531 -2.230469 C 8.308594 -1.878906 8.878906 -4.085938 7.464844 -4.433594 C 6.699219 -4.617188 5.933594 -4.753906 5.152344 -4.828125 C 5.183594 -4.882812 5.203125 -4.957031 5.234375 -5.027344 C 5.394531 -5.457031 5.679688 -5.949219 5.761719 -6.394531 C 5.777344 -6.453125 5.789062 -6.5 5.820312 -6.554688 C 5.984375 -6.527344 6.167969 -6.511719 6.203125 -6.519531 C 7.238281 -6.40625 8.28125 -6.308594 9.320312 -6.210938 C 10.773438 -6.070312 10.71875 -8.34375 9.285156 -8.496094 Z M 9.285156 -8.496094 "/></g></g></g><g fill="#25242a" fill-opacity="1"><g transform="translate(179.842678, 254.86918)"><g><path d="M 10.179688 -7.800781 C 9.363281 -10.054688 6.230469 -10.949219 4.308594 -9.644531 C 2.476562 -8.621094 1.628906 -5.554688 1.726562 -3.726562 C 1.796875 -2.472656 2.335938 -1.0625 3.476562 -0.429688 C 4.660156 0.242188 6.152344 0.0625 7.3125 -0.558594 C 8.496094 -1.203125 9.367188 -2.3125 9.835938 -3.5625 C 10.289062 -4.804688 10.648438 -6.511719 10.179688 -7.800781 Z M 6.304688 -2.554688 C 6.253906 -2.535156 6.21875 -2.511719 6.164062 -2.476562 C 5.609375 -2.167969 4.816406 -2.160156 4.386719 -2.648438 C 4.109375 -2.953125 4.039062 -3.382812 4.015625 -3.789062 C 3.996094 -4.460938 4.097656 -5.136719 4.304688 -5.777344 C 4.5 -6.355469 4.800781 -7.085938 5.242188 -7.507812 C 5.640625 -7.875 6.214844 -8.039062 6.753906 -7.945312 C 7.679688 -7.777344 8.152344 -7.03125 8.082031 -6.148438 C 7.996094 -4.800781 7.496094 -3.308594 6.304688 -2.554688 Z M 6.304688 -2.554688 "/></g></g></g><g fill="#25242a" fill-opacity="1"><g transform="translate(189.689629, 256.845046)"><g><path d="M 9.71875 -8.363281 C 8.777344 -10.570312 5.597656 -11.285156 3.753906 -9.875 C 1.984375 -8.75 1.3125 -5.640625 1.511719 -3.816406 C 1.65625 -2.570312 2.269531 -1.195312 3.449219 -0.628906 C 4.664062 -0.0234375 6.144531 -0.289062 7.269531 -0.972656 C 8.414062 -1.683594 9.222656 -2.839844 9.621094 -4.117188 C 10 -5.382812 10.261719 -7.105469 9.71875 -8.363281 Z M 6.148438 -2.910156 C 6.101562 -2.886719 6.066406 -2.859375 6.015625 -2.820312 C 5.476562 -2.484375 4.6875 -2.429688 4.230469 -2.890625 C 3.933594 -3.179688 3.84375 -3.605469 3.792969 -4.011719 C 3.734375 -4.679688 3.800781 -5.359375 3.972656 -6.011719 C 4.132812 -6.601562 4.390625 -7.347656 4.808594 -7.792969 C 5.183594 -8.183594 5.75 -8.378906 6.292969 -8.316406 C 7.226562 -8.199219 7.738281 -7.484375 7.71875 -6.597656 C 7.710938 -5.246094 7.292969 -3.726562 6.148438 -2.910156 Z M 6.148438 -2.910156 "/></g></g></g><g fill="#25242a" fill-opacity="1"><g transform="translate(199.623847, 258.244549)"><g><path d="M 4.21875 -10.554688 C 4.101562 -10.582031 3.96875 -10.621094 3.847656 -10.648438 C 3.132812 -10.832031 2.179688 -10.933594 2.039062 -10 C 1.601562 -7.28125 1.238281 -4.539062 0.917969 -1.792969 C 0.863281 -1.3125 1.230469 -0.820312 1.695312 -0.71875 C 2.039062 -0.644531 2.410156 -0.703125 2.765625 -0.792969 C 4.011719 -1.078125 5.519531 -1.417969 6.578125 -2.179688 C 7.535156 -2.855469 8.292969 -3.84375 8.53125 -4.996094 C 8.820312 -6.386719 8.304688 -7.773438 7.355469 -8.800781 C 6.496094 -9.730469 5.410156 -10.207031 4.21875 -10.554688 Z M 6.175781 -5.066406 C 5.648438 -3.921875 4.519531 -3.578125 3.371094 -3.316406 C 3.574219 -4.941406 3.808594 -6.582031 4.046875 -8.222656 C 5.425781 -7.796875 6.910156 -6.660156 6.175781 -5.066406 Z M 6.175781 -5.066406 "/></g></g></g><g fill="#25242a" fill-opacity="1"><g transform="translate(208.5974, 258.98992)"><g/></g></g><g fill="#25242a" fill-opacity="1"><g transform="translate(213.34532, 259.259025)"><g><path d="M 6.925781 -4.636719 C 6.46875 -4.683594 6 -4.71875 5.542969 -4.753906 C 5.546875 -5.121094 5.550781 -5.484375 5.554688 -5.832031 C 5.554688 -7.304688 3.277344 -7.328125 3.277344 -5.855469 C 3.273438 -5.539062 3.273438 -5.21875 3.269531 -4.886719 C 2.8125 -4.90625 2.359375 -4.925781 1.902344 -4.929688 C 0.429688 -4.945312 0.40625 -2.667969 1.878906 -2.652344 C 2.335938 -2.648438 2.789062 -2.628906 3.246094 -2.609375 C 3.253906 -2.09375 3.25 -1.5625 3.242188 -1.03125 C 3.230469 0.441406 5.507812 0.464844 5.519531 -1.007812 C 5.527344 -1.492188 5.53125 -1.992188 5.519531 -2.480469 C 5.992188 -2.445312 6.445312 -2.410156 6.902344 -2.359375 C 8.355469 -2.207031 8.378906 -4.484375 6.925781 -4.636719 Z M 6.925781 -4.636719 "/></g></g></g><g fill="#25242a" fill-opacity="1"><g transform="translate(222.226972, 259.307295)"><g/></g></g><g fill="#25242a" fill-opacity="1"><g transform="translate(226.982893, 259.21116)"><g><path d="M 2.539062 -11.078125 C 2.417969 -11.085938 2.277344 -11.109375 2.15625 -11.113281 C 1.421875 -11.1875 0.464844 -11.136719 0.46875 -10.195312 C 0.457031 -7.441406 0.523438 -4.675781 0.632812 -1.914062 C 0.648438 -1.429688 1.089844 -1 1.5625 -0.972656 C 1.914062 -0.949219 2.269531 -1.066406 2.613281 -1.210938 C 3.796875 -1.6875 5.234375 -2.253906 6.160156 -3.167969 C 7.003906 -3.988281 7.601562 -5.078125 7.65625 -6.253906 C 7.730469 -7.671875 7.003906 -8.960938 5.910156 -9.832031 C 4.914062 -10.617188 3.765625 -10.917969 2.539062 -11.078125 Z M 5.320312 -5.957031 C 4.972656 -4.746094 3.914062 -4.234375 2.816406 -3.796875 C 2.769531 -5.4375 2.746094 -7.09375 2.726562 -8.75 C 4.15625 -8.542969 5.796875 -7.648438 5.320312 -5.957031 Z M 5.320312 -5.957031 "/></g></g></g><g fill="#25242a" fill-opacity="1"><g transform="translate(236.02187, 258.606434)"><g><path d="M 8.386719 -2.46875 C 7.421875 -3.5 6.347656 -4.394531 5.15625 -5.136719 C 5.902344 -5.808594 6.484375 -6.6875 6.664062 -7.582031 C 7.03125 -9.371094 5.289062 -10.871094 3.546875 -10.582031 C 1.707031 -10.269531 0.695312 -8.402344 0.566406 -6.691406 C 0.390625 -4.464844 0.671875 -2.160156 0.773438 0.0585938 C 0.828125 1.519531 3.085938 1.246094 3.03125 -0.214844 C 2.976562 -1.417969 2.925781 -2.617188 2.886719 -3.820312 C 4.269531 -3.132812 5.511719 -2.226562 6.582031 -1.089844 C 7.566406 -0.03125 9.402344 -1.398438 8.386719 -2.46875 Z M 4.429688 -8.105469 C 4.519531 -7.871094 3.914062 -7.1875 3.753906 -7 C 3.472656 -6.675781 3.195312 -6.425781 2.808594 -6.335938 C 2.824219 -6.597656 2.851562 -6.859375 2.929688 -7.113281 C 3 -7.414062 4.09375 -9.105469 4.429688 -8.105469 Z M 4.429688 -8.105469 "/></g></g></g><g fill="#25242a" fill-opacity="1"><g transform="translate(245.698714, 257.377927)"><g><path d="M -0.078125 -9.460938 C 0.0585938 -6.714844 0.277344 -3.96875 0.570312 -1.230469 C 0.714844 0.238281 2.960938 -0.144531 2.816406 -1.597656 C 2.523438 -4.332031 2.308594 -7.082031 2.167969 -9.828125 C 2.082031 -11.289062 -0.164062 -10.921875 -0.078125 -9.460938 Z M -0.078125 -9.460938 "/></g></g></g><g fill="#25242a" fill-opacity="1"><g transform="translate(250.289097, 256.680614)"><g><path d="M 4.691406 -10.367188 C 4.785156 -8.714844 4.832031 -7.050781 4.859375 -5.398438 L 2.914062 -8.160156 C 2.339844 -8.988281 0.996094 -8.371094 0.929688 -7.472656 C 0.78125 -5.027344 0.730469 -2.566406 0.765625 -0.125 C 0.785156 1.34375 3.066406 1.496094 3.042969 0.0273438 C 3.015625 -1.316406 3.03125 -2.667969 3.066406 -4.023438 C 3.761719 -3.035156 4.445312 -2.058594 5.140625 -1.070312 C 5.710938 -0.257812 7.113281 -0.824219 7.125 -1.753906 C 7.167969 -4.570312 7.113281 -7.394531 6.957031 -10.210938 C 6.875 -11.652344 4.59375 -11.820312 4.691406 -10.367188 Z M 4.691406 -10.367188 "/></g></g></g><g fill="#25242a" fill-opacity="1"><g transform="translate(259.928637, 254.683892)"><g><path d="M 4.917969 -11.179688 C 5.316406 -12.597656 3.117188 -13.203125 2.730469 -11.800781 C 2.46875 -10.886719 2.132812 -9.464844 1.398438 -8.726562 C 1.195312 -9.691406 0.980469 -10.640625 0.730469 -11.59375 C 0.375 -13.023438 -1.828125 -12.449219 -1.472656 -11.019531 C -0.757812 -8.210938 -0.203125 -5.359375 0.152344 -2.488281 C 0.21875 -1.875 0.589844 -1.347656 1.269531 -1.335938 C 1.820312 -1.320312 2.5 -1.84375 2.421875 -2.449219 C 2.277344 -3.730469 2.089844 -4.984375 1.871094 -6.246094 C 2.820312 -5.738281 3.558594 -4.894531 3.917969 -3.875 C 4.414062 -2.511719 6.621094 -3.074219 6.121094 -4.449219 C 5.605469 -5.882812 4.726562 -7.035156 3.539062 -7.855469 C 4.207031 -8.84375 4.601562 -10.042969 4.917969 -11.179688 Z M 4.917969 -11.179688 "/></g></g></g></svg>